<?xml version="1.0" encoding="UTF-8" standalone="no"?>
<svg version="1.1" viewBox="0 0 669.06268 969.54651" xml:space="preserve" id="handcard" xmlns="http://www.w3.org/2000/svg" xmlns:svg="http://www.w3.org/2000/svg">
 <desc id="desc1">Created with Fabric.js 3.5.0</desc>
 <defs id="defs1" />
 <g transform="matrix(10.7728,0,0,10.7728,334.531,484.77376)" id="982417">
   <path style="opacity:1;fill:#000000;fill-rule:nonzero;stroke:none;stroke-width:1;stroke-linecap:butt;stroke-linejoin:miter;stroke-miterlimit:4;stroke-dasharray:none;stroke-dashoffset:0" transform="translate(-49.9993,-50.0003)"
   d="M 80.938,56.066 C 80.579,52.743 79.386,49.587 77.709,46.711 74.703,41.554 70.207,37.346 65.427,33.849 64.044,32.838 62.615,31.854 61.124,31 c 0,-0.209 0,-0.418 0,-0.626 0,-5.312 0,-10.622 0,-15.933 0,-1.465 0,-2.932 0,-4.397 0,-2.024 -0.681,-4 -2.786,-4.753 -1.15,-0.412 -2.524,-0.265 -3.729,-0.265 -2.228,0 -4.455,0 -6.683,0 -5.787,0 -11.574,0 -17.363,0 -1.992,0 -3.984,0 -5.977,0 -1.823,0 -3.574,0.082 -4.797,1.724 -0.84,1.128 -0.843,2.358 -0.843,3.667 0,1.446 0,2.892 0,4.338 0,11.004 0,22.009 0,33.013 0,4.597 0,9.193 0,13.789 0,1.063 0,2.126 0,3.188 0,2.426 1.709,4.56 4.264,4.56 8.156,0 16.313,0 24.47,0 0.186,2.026 0.826,4.078 1.49,5.949 0.916,2.579 2.33,4.917 3.326,7.454 0.884,2.253 1.41,4.654 1.62,7.062 0.144,1.644 -0.204,3.627 1.431,4.653 0.861,0.54 1.828,0.577 2.807,0.577 2.412,0 4.824,0 7.237,0 2.574,0 5.148,0 7.723,0 1.755,0 3.438,-0.292 4.02,-2.279 0.387,-1.319 -0.104,-3.022 -0.21,-4.368 -0.145,-1.84 -0.189,-3.687 -0.165,-5.532 0.067,-5.036 0.778,-10.041 2.061,-14.91 0.584,-2.218 1.43,-4.356 1.788,-6.629 0.272,-1.73 0.32,-3.475 0.13,-5.216 z m -57.652,11.05 c -1.584,0 -2.151,-1.277 -2.151,-2.619 0,-3.297 0,-6.594 0,-9.891 0,-11.382 0,-22.763 0,-34.144 0,-3.47 0,-6.94 0,-10.41 0,-1.346 0.363,-2.839 2.075,-2.839 1.064,0 2.129,0 3.193,0 9.901,0 19.803,0 29.703,0 0.256,0 0.512,0 0.768,0 1.202,0 2.063,0.997 2.063,2.158 0,1 0,2 0,3 0,4.861 0,9.723 0,14.584 0,1.563 0,3.123 0,4.686 0,6.727 0,13.453 0,20.181 -0.247,-0.354 -0.494,-0.708 -0.741,-1.063 -0.357,-0.512 -0.703,-1.027 -1.065,-1.523 -0.552,-0.782 -1.157,-1.482 -1.889,-2.05 -0.065,-0.051 -0.133,-0.102 -0.2,-0.15 -0.04,-0.029 -0.079,-0.059 -0.12,-0.087 -0.22,-0.153 -0.452,-0.296 -0.7,-0.425 -1.724,-0.895 -3.705,-0.971 -5.468,-0.369 -0.278,0.091 -0.553,0.194 -0.823,0.314 -1.247,0.555 -2.22,1.473 -2.89,2.576 -0.857,1.356 -1.197,2.968 -1.027,4.537 0.108,1.127 0.481,2.229 1.141,3.188 0.008,0.011 0.014,0.021 0.02,0.031 2.402,3.438 4.803,6.876 7.204,10.314 -8.381,0 -16.764,0 -25.147,0 -1.317,0.001 -2.632,0.001 -3.946,0.001 z m 54.901,-4.058 c -0.726,2.635 -1.572,5.202 -2.125,7.887 -0.515,2.503 -0.861,5.042 -1.079,7.587 -0.325,3.791 -0.299,7.621 0.097,11.405 0.103,0.973 0.539,2.551 -0.503,2.844 -0.049,0.014 -0.08,0.023 -0.102,0.031 -0.016,-10e-4 -0.041,-10e-4 -0.08,0.001 -0.023,0 -0.047,0 -0.069,0 -0.222,0 -0.442,0 -0.664,0 -4.991,0 -9.983,0 -14.976,0 -0.554,0 -1.515,0.124 -1.96,-0.222 -0.503,-0.393 -0.331,-1.156 -0.353,-1.715 -0.04,-1.057 -0.161,-2.105 -0.311,-3.151 -0.368,-2.584 -1.153,-5.077 -2.242,-7.444 -1.081,-2.354 -2.255,-4.587 -3.029,-7.072 -0.401,-1.289 -0.767,-2.604 -0.912,-3.903 1.53,0 3.06,0 4.591,0 0.778,0 1.432,-0.949 0.944,-1.646 C 52.852,63.992 50.29,60.323 47.729,56.655 47.72,56.642 47.71,56.63 47.703,56.617 47.566,56.422 47.43,56.226 47.293,56.031 47.141,55.81 46.991,55.587 46.852,55.357 c -1.217,-2.139 -0.793,-4.683 1.099,-6.335 0.921,-0.757 2.11,-1.116 3.288,-1.063 1.083,0.078 2.15,0.51 2.996,1.216 0.531,0.491 0.952,1.087 1.383,1.703 0.436,0.624 0.871,1.247 1.306,1.87 0.002,0.003 0.003,0.005 0.005,0.007 0.72,1.03 1.439,2.061 2.158,3.091 0.006,0.008 0.013,0.015 0.019,0.022 1.585,2.27 3.17,4.538 4.755,6.808 0.801,1.147 2.698,0.056 1.889,-1.104 -1.541,-2.206 -3.082,-4.413 -4.623,-6.619 0,-7.136 0,-14.271 0,-21.405 2.207,1.357 4.299,2.944 6.261,4.608 4.684,3.972 8.976,8.925 10.741,14.916 0.963,3.27 0.962,6.701 0.058,9.986 z"
   stroke-linecap="round" id="base" />
   <path style="fill:#ffffff;stroke-width:2.1164"
   d="m 594.70899,956.61376 c -3.28069,-3.2807 -4.2328,-7.05467 -4.2328,-16.77808 0,-32.11564 -9.83754,-74.34114 -25.60954,-109.92338 -26.95925,-60.82111 -31.6305,-72.2574 -36.42289,-89.17156 -2.80338,-9.89418 -5.6834,-21.08466 -6.40004,-24.86772 l -1.30298,-6.87831 h 25.9312 c 29.14115,0 35.40474,-2.18349 35.25312,-12.28931 -0.0589,-3.92805 -14.85858,-26.75473 -47.60495,-73.42498 -50.64801,-72.1837 -55.75178,-81.73001 -52.97606,-99.08843 2.08776,-13.05611 11.52456,-28.57643 21.58317,-35.49693 19.59236,-13.47989 44.84759,-12.01341 62.13882,3.60818 4.55252,4.11292 29.88304,38.42498 56.29006,76.24903 26.40701,37.82407 50.16106,70.17863 52.78676,71.89905 8.42428,5.51981 20.03703,-0.47898 20.03703,-10.3505 0,-1.63993 -11.90476,-20.0041 -26.45502,-40.80929 L 641.26984,551.46391 V 438.69492 c 0,-62.02294 0.5192,-112.76899 1.15378,-112.76899 2.60326,0 34.24198,22.50961 54.43477,38.72806 94.05661,75.54436 141.83302,162.75992 132.80692,242.43835 -1.16082,10.24728 -5.9989,32.36736 -10.7513,49.15577 -18.01143,63.62753 -24.50586,96.52031 -29.42743,149.04289 -2.93469,31.31895 -2.80074,82.23702 0.31386,119.30468 2.43431,28.97151 2.3662,30.55433 -1.4343,33.33333 -3.24663,2.37402 -21.26318,2.91755 -96.70716,2.91755 -89.89531,0 -92.84601,-0.12883 -96.94999,-4.2328 z" id="hand" transform="matrix(0.09282638,0,0,0.09282638,-48.375947,-46.413263)" />
   <path style="stroke-width:2.1164"
   d="m 225.39683,681.59712 c -2.32805,-0.95285 -6.13757,-3.8495 -8.46561,-6.43701 -4.18611,-4.65268 -4.23888,-8.07776 -4.7831,-310.46731 C 211.54624,30.27064 210.91004,48.349453 223.482,42.621285 c 3.82607,-1.743274 56.50183,-2.409645 190.4793,-2.409645 201.1158,0 193.91605,-0.418193 199.38327,11.581074 1.91052,4.193088 2.52845,61.467056 2.52845,234.350356 v 228.80101 l -13.95454,-19.5069 c -22.17785,-31.00215 -39.15059,-41.1936 -68.58515,-41.18268 -32.91354,0.0122 -58.2372,15.56946 -71.11346,43.68757 -5.20002,11.35535 -6.03318,15.79234 -6.04961,32.21666 -0.0255,25.49354 2.37816,30.28262 47.83916,95.31596 20.31255,29.05771 37.65727,54.02266 38.54383,55.47769 1.28415,2.1076 -30.36523,2.61822 -155.65586,2.51134 -86.49727,-0.0738 -159.17252,-0.91375 -161.50056,-1.8666 z" id="card" transform="matrix(0.09282638,0,0,0.09282638,-48.375947,-46.413263)" />
 </g>
</svg>
